<?xml version="1.0" encoding="UTF-8" standalone="no"?>
<!DOCTYPE svg PUBLIC "-//W3C//DTD SVG 1.1//EN" "http://www.w3.org/Graphics/SVG/1.1/DTD/svg11.dtd">
<svg width="100%" height="100%" viewBox="0 0 479 497" version="1.1" xmlns="http://www.w3.org/2000/svg" xmlns:xlink="http://www.w3.org/1999/xlink" xml:space="preserve" xmlns:serif="http://www.serif.com/" style="fill-rule:evenodd;clip-rule:evenodd;stroke-linejoin:round;stroke-miterlimit:2;">
    <g transform="matrix(1,0,0,1,-25.2829,-123.191)">
        <path d="M408.811,541.266C401.495,543.18 393.889,543.738 386.454,545.118C372.919,547.63 357.648,554.467 344.47,546.957C334.15,541.076 324.2,528.298 319.413,517.606C318.244,514.994 317.907,509.926 321.107,508.329C324.409,506.68 333.079,507.545 334.568,507.61C343.683,508.014 351.382,509.392 360.551,508.447C382.329,506.201 398.65,491.874 412.168,475.858C427.161,458.094 424.015,437.746 429.249,416.643C430.531,411.471 434.393,406.964 438.172,403.498C439.082,402.664 453.413,389.021 460.018,386.326C480.004,378.169 491.942,401.576 496.836,416.433C498.792,422.367 500.923,428.278 502.194,434.396C503.107,438.794 503.677,443.341 503.355,447.821C502.933,453.706 501.603,459.524 499.982,465.197C498.238,471.301 496.014,477.292 493.295,483.028C489.454,491.129 482.881,497.871 479.777,506.283C477.296,513.005 483.775,519.766 478.77,524.656C474.453,528.875 466.683,524.535 460.664,525C446.859,526.065 438.251,532.323 425.471,536.632" style="fill-rule:nonzero;"/>
    </g>
    <g transform="matrix(1,0,0,1,-25.2829,-123.191)">
        <path d="M48.379,374.118C51.941,374.395 55.51,373.664 58.676,372.008C61.83,370.208 64.419,367.562 66.151,364.37C78.739,343.084 80.952,327.015 88.244,302.833C93.569,285.178 101.404,266.41 117.325,255.673C126.546,249.454 141.285,239.177 153.988,239.656C156.777,239.761 171.539,242.459 171.602,246.609C171.863,263.728 152.73,294.378 152.73,294.378C141.707,318.612 142.546,347.789 147.394,373.387C152.13,398.393 157.196,407.611 158.596,432.376C159.605,450.225 143.892,469.562 125.429,469.494C118.34,469.468 111.018,465.723 105.285,462.355C91.533,454.468 79.071,444.519 68.333,432.856C51.142,413.849 52.242,413.209 36.312,393.257C33.539,389.783 29.328,387.659 26.498,384.232C23.696,380.841 25.857,379.034 28.571,377.306C34.161,373.747 42.049,373.086 48.379,374.118Z" style="fill-rule:nonzero;"/>
    </g>
    <g transform="matrix(1,0,0,1,-25.2829,-123.191)">
        <path d="M268.272,609.153C260.41,608.381 255.034,607.335 247.447,610.577C239.632,613.916 235.505,620.882 226.382,620.076C224.912,616.929 224.167,613.49 224.202,610.016C224.47,601.647 227.16,593.465 227.363,585.094C227.829,565.932 214.786,545.98 200.21,534.606C182.945,521.133 163.048,511.388 151.781,491.653C148.57,486.03 147.769,479.334 153.756,475.655C155.054,474.943 156.533,474.625 158.009,474.741C166.234,474.815 171.503,480.298 179.412,485.702C187.263,490.956 195.822,495.064 204.833,497.902C210.861,499.714 217.054,500.924 223.322,501.514C245.197,503.624 270.095,502.184 289.909,514.102C295.934,517.726 300.641,525.188 304.276,530.861C307.441,535.8 314.404,547.109 315.892,552.94C318.575,563.45 317.301,572.489 316.182,583.035C315.603,588.486 314.999,594.402 311.862,599.168C305.06,609.5 291.244,612.848 279.651,611.367" style="fill-rule:nonzero;"/>
    </g>
    <g transform="matrix(1,0,0,1,-25.2829,-123.191)">
        <path d="M349.892,276.783C352.012,277.583 353.955,278.789 355.613,280.332C367.076,292.935 369.149,308.797 384.45,318.478C393.872,324.438 404.383,328.477 414.216,333.732C420.837,337.271 430.2,341.957 433.633,349.419C436.7,356.087 434.331,365.741 432.464,372.078C427.849,387.738 417.234,399.587 410.961,414.52C403.713,431.778 406.316,437.768 401.11,455.529C399.767,460.111 397.835,464.567 395.355,468.647C378.818,495.852 349.984,497.072 321.268,492.885C311.528,491.761 299.712,479.644 304.006,469.27C312.554,448.615 340.59,446.063 346.233,422.5C349.683,408.091 351.759,393.234 347.424,378.783C342.669,362.931 333.338,346.951 336.674,329.666C342.607,311.104 345.473,302.702 347.705,286.562" style="fill-rule:nonzero;"/>
    </g>
    <g transform="matrix(1,0,0,1,-25.2829,-123.191)">
        <path d="M242.207,315.501C240.944,335.253 227.704,348.263 221.606,366.243C218.559,375.229 218.296,384.273 220.192,393.518C223.869,411.449 234.436,429.937 249.501,440.685C260.001,448.177 262.014,447.491 273.031,451.668C278.752,453.838 283.473,454.694 286.02,461.017C291.986,475.827 275.343,492.013 262.348,494.749C246.804,498.177 228.817,490.131 215.374,485.353C206.524,482.207 197.81,478.642 189.299,474.669C186.239,473.241 168.822,465.767 168.15,458.183C168.009,456.267 168.078,454.341 168.355,452.439C169.217,448.445 170.739,444.623 172.86,441.131C181.714,425.908 168.049,407.16 165.316,392.394C164.22,386.47 165.726,372.825 166.153,367.126C166.583,361.378 166.335,355.288 168.718,349.838C174.346,336.449 188.811,335.024 199.694,327.812C205.905,323.696 223.415,307.426 227.028,304.236C231.439,300.34 237.817,295.392 240.322,304.422C241.323,308.032 241.929,311.766 242.207,315.501Z" style="fill-rule:nonzero;"/>
    </g>
    <g transform="matrix(1,0,0,1,-25.2829,-123.191)">
        <path d="M220.516,141.438C222.157,139.394 224.463,137.989 227.032,137.468C235,136.529 238.059,128.232 243.216,123.191C245.439,128.917 247.303,134.817 250.117,140.276C257.237,154.089 272.872,163.393 285.583,170.663C304.205,181.316 328.992,184.687 341.41,204.025C346.26,211.577 350.847,219.302 355.233,227.133C359.045,233.939 362.752,240.819 365.994,247.913C366.522,249.069 365.291,251.184 364.05,251.334C328.263,255.673 305.969,218.604 271.26,219.549C254.103,220.016 248.076,222.159 232.568,229.224C219.971,234.963 204.946,247.831 190.743,238.176C188.264,236.604 185.879,234.888 183.6,233.038C172.65,223.528 172.442,204.947 179.637,193.266C182.954,187.881 187.166,183.1 191.083,178.135C200.794,165.823 210.583,153.571 220.516,141.438Z" style="fill-rule:nonzero;"/>
    </g>
    <g transform="matrix(1,0,0,1,-25.2829,-123.191)">
        <path d="M434.99,238.437C452.986,241.411 470.392,247.241 486.548,255.707C489.717,257.408 491.113,258.413 493.505,260.427C493.814,260.667 494.08,260.905 494.305,261.142C496.246,263.182 495.159,265.095 493.458,267.138C488.728,272.819 481.071,277.985 480.226,286.148C479.131,296.715 485.413,306.119 487.628,316.002C489.768,325.552 488.759,330.373 485.906,339.558C483.227,348.612 478.53,356.942 472.168,363.92C462.515,374.319 458.306,378.955 444.889,379.606C446.561,377.5 448.12,375.307 449.558,373.035C451.848,368.766 453.755,364.301 455.256,359.695C458.649,349.987 453.611,340.103 448.109,330.675C443.31,322.622 436.138,316.246 427.578,312.424C422.055,309.851 416.371,307.639 410.806,305.158C396.33,298.703 369.331,287.771 376.685,266.748C378.933,260.322 382.236,256.778 386.61,251.76C391.164,246.292 396.954,241.984 403.5,239.193C412.526,235.448 420.145,236.413 434.99,238.437Z" style="fill-rule:nonzero;"/>
    </g>
    <g transform="matrix(1,0,0,1,-25.2829,-123.191)">
        <path d="M326.604,309.86C320.063,306.975 313.189,304.662 307.052,301.086C294.87,293.914 280.999,289.301 266.925,287.882C250.602,286.235 233.572,279.545 219.717,288.568C210.244,294.737 209.184,302.493 201.684,310.741C197.786,315.029 193.069,318.574 188.19,321.7C180.866,326.393 175.152,332.935 168.047,327.886C158.272,320.94 168.72,306.963 171.381,299.262C173.478,293.196 177.343,271.572 185.481,265.392C192.638,259.957 199.887,259.611 208.468,257.469C220.185,254.545 224.544,253.249 235.588,247.318C244.13,242.731 253.137,231.64 263.818,233.856C278.883,235.965 289.565,241.452 302.838,247.901C313.08,252.878 325.189,256.029 331.694,266.449C339.352,278.716 345.745,306.269 326.604,309.86Z" style="fill-rule:nonzero;"/>
    </g>
    <g transform="matrix(1,0,0,1,-25.2829,-123.191)">
        <path d="M265.949,352.964C267.994,373.835 281.736,392.047 299.107,402.924C307.738,408.328 323.032,411.998 327.943,422.737C321.843,429.702 316.801,432.654 308.573,436.656C272.451,454.225 233.058,417.839 233.143,381.731C233.169,370.262 239.258,364.711 247.552,357.366C251.737,353.66 255.676,347.387 261.257,347.703C264.049,347.86 266.28,350.077 265.949,352.964Z" style="fill-rule:nonzero;"/>
    </g>
    <g transform="matrix(1,0,0,1,-25.2829,-123.191)">
        <path d="M275.625,306.144C283.729,307.292 299.99,307.89 307.86,313.096C311.711,315.723 314.789,319.334 316.774,323.552C321.37,332.805 325.858,343.826 326.903,354.471C327.257,358.069 327.159,361.706 326.967,365.316C326.733,369.715 326.247,374.102 325.626,378.463C325.131,381.944 323.749,387.975 321.526,390.956C317.599,396.223 308.437,390.479 306,386.564C298.098,373.872 294.825,359.024 286.833,346.603C284.256,342.597 281.076,339.182 276.787,336.958C269.194,333.022 259.487,334.035 256.572,324.016C253.176,312.345 265.042,304.485 275.625,306.144Z" style="fill-rule:nonzero;"/>
    </g>
</svg>
